<svg width="200" height="200" viewBox="0 0 200 200" fill="none" xmlns="http://www.w3.org/2000/svg">
  <rect width="200" height="200" fill="#2A2A2A"/>
  <path d="M100 70C88.9543 70 80 78.9543 80 90C80 101.046 88.9543 110 100 110C111.046 110 120 101.046 120 90C120 78.9543 111.046 70 100 70ZM100 105C91.7157 105 85 98.2843 85 90C85 81.7157 91.7157 75 100 75C108.284 75 115 81.7157 115 90C115 98.2843 108.284 105 100 105Z" fill="#404040"/>
  <path d="M65 130H135V125H65V130ZM70 140H130V135H70V140Z" fill="#404040"/>
</svg>
